<svg xmlns="http://www.w3.org/2000/svg" version="1.1" xmlns:xlink="http://www.w3.org/1999/xlink" xmlns:svgjs="http://svgjs.dev/svgjs" width="1500" height="488" viewBox="0 0 1500 488"><g transform="matrix(1,0,0,1,-0.9090909090909918,-1.8067670504871955)"><svg viewBox="0 0 396 129" data-background-color="#3b4131" preserveAspectRatio="xMidYMid meet" height="488" width="1500" xmlns="http://www.w3.org/2000/svg" xmlns:xlink="http://www.w3.org/1999/xlink"><g id="tight-bounds" transform="matrix(1,0,0,1,0.2400000000000091,0.4776085031001003)"><svg viewBox="0 0 395.52 128.04478299379983" height="128.04478299379983" width="395.52"><g><svg viewBox="0 0 395.52 128.04478299379983" height="128.04478299379983" width="395.52"><g><svg viewBox="0 0 395.52 128.04478299379983" height="128.04478299379983" width="395.52"><g id="textblocktransform"><svg viewBox="0 0 395.52 128.04478299379983" height="128.04478299379983" width="395.52" id="textblock"><g><svg viewBox="0 0 395.52 128.04478299379983" height="128.04478299379983" width="395.52"><g transform="matrix(1,0,0,1,0,0)"><svg width="395.52" viewBox="0.7 -36.3 112.89 36.55" height="128.04478299379983" data-palette-color="#fff6db"><path d="M4.65 0.2L4.65 0.2Q3.1 0.2 1.9-0.55 0.7-1.3 0.7-3.05L0.7-3.05Q0.7-5.8 1.88-8.65 3.05-11.5 4.78-14.28 6.5-17.05 8.22-19.7 9.95-22.35 11.13-24.75 12.3-27.15 12.3-29.2L12.3-29.2Q12.3-30.85 11.5-30.85L11.5-30.85Q10.95-30.85 10.25-29.98 9.55-29.1 9.25-27.4L9.25-27.4 8.7-27.5Q8.7-30.35 10.05-32.33 11.4-34.3 13.5-35.3 15.6-36.3 17.8-36.3L17.8-36.3Q20.35-36.3 22.58-34.85 24.8-33.4 25.65-30.25L25.65-30.25Q26-29 26.18-27.45 26.35-25.9 26.4-24.78 26.45-23.65 26.45-23.65L26.45-23.65Q26.55-19.6 26.63-16.8 26.7-14 26.9-12.1 27.1-10.2 27.45-8.9L27.45-8.9Q27.8-7.65 28.38-6.88 28.95-6.1 29.85-6.1L29.85-6.1Q30.7-6.1 31.33-6.6 31.95-7.1 32.15-7.55L32.15-7.55 32.5-7.3Q32.5-5 31.6-3.3 30.7-1.6 29.25-0.7 27.8 0.2 26.2 0.2L26.2 0.2Q24.65 0.2 23.18-0.73 21.7-1.65 20.6-3.6 19.5-5.55 19.15-8.65L19.15-8.65Q17.6-8.75 16.13-8.83 14.65-8.9 13.45-8.9L13.45-8.9Q12.65-8.9 11.93-8.88 11.2-8.85 10.5-8.8L10.5-8.8Q10.05-7.25 9.78-5.68 9.5-4.1 9.5-2.6L9.5-2.6Q9.5-1.45 8-0.63 6.5 0.2 4.65 0.2ZM12.15-13.45L12.15-13.45Q13.4-13.8 14.8-13.93 16.2-14.05 17.8-14.05L17.8-14.05 18.9-14.05Q18.8-17.75 18.63-21.65 18.45-25.55 17.35-28.9L17.35-28.9Q16.95-25.3 15.35-21.35 13.75-17.4 12.15-13.45ZM41.65 0.2L41.65 0.2Q39.4 0.2 37.87-1.65 36.35-3.5 36.35-6.6L36.35-6.6Q36.35-8.3 36.75-10.25 37.15-12.2 37.55-13.95L37.55-13.95Q37.9-15.25 38.12-16.38 38.35-17.5 38.35-18.2L38.35-18.2Q38.35-19.1 37.97-19.5 37.6-19.9 37.1-19.9L37.1-19.9Q36.6-19.9 36.1-19.58 35.6-19.25 35.3-18.6L35.3-18.6 34.9-18.75Q34.9-20.8 35.9-22.25 36.9-23.7 38.45-24.45 40-25.2 41.6-25.2L41.6-25.2Q42.9-25.2 44.1-24.68 45.3-24.15 46.07-23.05 46.85-21.95 46.85-20.3L46.85-20.3Q46.85-19.3 46.57-17.9 46.3-16.5 45.95-15L45.95-15Q45.6-13.45 45.27-11.88 44.95-10.3 44.95-9.1L44.95-9.1Q44.95-8 45.3-7.3 45.65-6.6 46.35-6.6L46.35-6.6Q47.65-6.6 49.27-9 50.9-11.4 51.9-15.45L51.9-15.45Q52.1-16.25 52.25-17.15 52.4-18.05 52.4-19L52.4-19Q52.4-19.75 52.3-20.53 52.2-21.3 52-22.1L52-22.1 52-22.45Q52.8-23.8 54.07-24.5 55.35-25.2 56.65-25.2L56.65-25.2Q58.4-25.2 59.8-24 61.2-22.8 61.2-20.5L61.2-20.5Q61.2-19.15 60.7-17.38 60.2-15.6 59.6-13.7L59.6-13.7Q59-11.85 58.5-10.05 58-8.25 58-6.85L58-6.85Q58-4.8 59.45-4.8L59.45-4.8Q59.85-4.8 60.42-5.03 61-5.25 61.5-5.95L61.5-5.95 61.85-5.85Q61.85-4.05 60.87-2.68 59.9-1.3 58.4-0.55 56.9 0.2 55.3 0.2L55.3 0.2Q53.25 0.2 51.62-1.3 50-2.8 50-6.2L50-6.2 50-6.3Q47.95-2.8 45.75-1.3 43.55 0.2 41.65 0.2ZM70.3 0.2L70.3 0.2Q68.5 0.2 67.1-1.28 65.7-2.75 65.7-5.45L65.7-5.45Q65.7-6.75 66-8.4 66.3-10.05 66.7-11.78 67.1-13.5 67.4-15.03 67.7-16.55 67.7-17.55L67.7-17.55Q67.7-18.6 67.32-19.23 66.95-19.85 66.35-19.85L66.35-19.85Q65.4-19.85 64.4-18.55L64.4-18.55 64.1-18.75Q64.05-19.55 64.45-20.65 64.85-21.75 65.7-22.78 66.55-23.8 67.87-24.5 69.2-25.2 71-25.2L71-25.2Q73.65-25.2 74.85-23.68 76.05-22.15 76.05-20L76.05-20Q76.05-19.65 76.02-19.28 76-18.9 75.95-18.55L75.95-18.55Q77.75-21.8 79.72-23.53 81.7-25.25 83.4-25.25L83.4-25.25Q85-25.25 85.75-24 86.5-22.75 86.5-21L86.5-21Q86.5-19.4 85.87-17.75 85.25-16.1 84.02-15.03 82.8-13.95 81.05-14L81.05-14 80.85-14.1Q80.8-15.4 80-16.15 79.2-16.9 78.2-16.9L78.2-16.9Q76.85-16.9 75.67-15.55 74.5-14.2 74.5-11.65L74.5-11.65Q74.5-10.1 74.85-8.3 75.2-6.5 75.2-5.25L75.2-5.25Q75.2-3.75 74.5-2.5 73.8-1.25 72.7-0.53 71.6 0.2 70.3 0.2ZM106.19 0.25L106.19 0.25Q104.44 0.25 103.14-0.9 101.84-2.05 101.84-4.65L101.84-4.65Q101.84-4.9 101.84-5.15 101.84-5.4 101.89-5.65L101.89-5.65Q100.39-2.65 98.52-1.23 96.64 0.2 94.74 0.2L94.74 0.2Q92.99 0.2 91.44-1.03 89.89-2.25 88.94-4.65 87.99-7.05 87.99-10.45L87.99-10.45Q87.99-13.95 88.97-16.7 89.94-19.45 91.54-21.35 93.14-23.25 95.04-24.23 96.94-25.2 98.74-25.2L98.74-25.2Q100.74-25.2 102.34-23.98 103.94-22.75 104.54-20.1L104.54-20.1Q104.69-20.95 104.77-21.65 104.84-22.35 104.84-22.6L104.84-22.6Q104.89-23.95 106.22-24.6 107.54-25.25 109.14-25.25L109.14-25.25Q110.54-25.25 111.79-24.7 113.04-24.15 113.49-22.85L113.49-22.85 113.59-22.55Q112.99-21.2 112.39-19.3 111.79-17.4 111.29-15.33 110.79-13.25 110.49-11.28 110.19-9.3 110.19-7.8L110.19-7.8Q110.19-6.15 110.54-5.53 110.89-4.9 111.39-4.9L111.39-4.9Q112.24-4.9 112.94-6.1L112.94-6.1 113.34-5.9Q113.34-4.2 112.24-2.8 111.14-1.4 109.49-0.58 107.84 0.25 106.19 0.25ZM98.04-6.1L98.04-6.1Q99.34-6.1 100.92-8.43 102.49-10.75 103.64-15.1L103.64-15.1Q103.74-15.55 103.84-15.98 103.94-16.4 103.99-16.8L103.99-16.8Q103.19-18.65 102.32-19.43 101.44-20.2 100.59-20.2L100.59-20.2Q99.34-20.2 98.27-18.88 97.19-17.55 96.52-15.55 95.84-13.55 95.84-11.55L95.84-11.55Q95.84-8.8 96.47-7.45 97.09-6.1 98.04-6.1Z" opacity="1" transform="matrix(1,0,0,1,0,0)" fill="#fff6db" class="wordmark-text-0" data-fill-palette-color="primary" id="text-0"></path></svg></g></svg></g></svg></g></svg></g><g></g></svg></g><defs></defs></svg><rect width="395.52" height="128.04478299379983" fill="none" stroke="none" visibility="hidden"></rect></g></svg></g></svg>